<svg width="337" height="74" viewBox="0 0 337 74" fill="none" xmlns="http://www.w3.org/2000/svg">
<rect width="337" height="69" rx="5" fill="#5B86E6"/>
<path d="M105.584 30.184H107.06V41.74H113.486V43H105.584V30.184ZM118.939 43.126C118.087 43.126 117.337 42.934 116.689 42.55C116.041 42.166 115.537 41.62 115.177 40.912C114.829 40.204 114.655 39.376 114.655 38.428C114.655 37.48 114.829 36.652 115.177 35.944C115.537 35.236 116.041 34.69 116.689 34.306C117.337 33.922 118.087 33.73 118.939 33.73C119.791 33.73 120.541 33.922 121.189 34.306C121.837 34.69 122.335 35.236 122.683 35.944C123.043 36.652 123.223 37.48 123.223 38.428C123.223 39.376 123.043 40.204 122.683 40.912C122.335 41.62 121.837 42.166 121.189 42.55C120.541 42.934 119.791 43.126 118.939 43.126ZM118.939 41.92C119.839 41.92 120.529 41.626 121.009 41.038C121.489 40.438 121.729 39.568 121.729 38.428C121.729 37.324 121.483 36.472 120.991 35.872C120.499 35.26 119.815 34.954 118.939 34.954C118.051 34.954 117.361 35.26 116.869 35.872C116.377 36.472 116.131 37.324 116.131 38.428C116.131 39.568 116.371 40.438 116.851 41.038C117.343 41.626 118.039 41.92 118.939 41.92ZM133.56 33.946V42.928C133.56 44.272 133.212 45.286 132.516 45.97C131.832 46.666 130.818 47.014 129.474 47.014C128.094 47.014 126.906 46.702 125.91 46.078L126.162 44.89C126.738 45.214 127.278 45.448 127.782 45.592C128.298 45.736 128.862 45.808 129.474 45.808C130.35 45.808 131.01 45.574 131.454 45.106C131.898 44.65 132.12 43.966 132.12 43.054V40.912C131.844 41.488 131.436 41.938 130.896 42.262C130.368 42.574 129.738 42.73 129.006 42.73C128.214 42.73 127.506 42.544 126.882 42.172C126.27 41.8 125.796 41.272 125.46 40.588C125.124 39.904 124.956 39.118 124.956 38.23C124.956 37.342 125.124 36.556 125.46 35.872C125.796 35.188 126.27 34.66 126.882 34.288C127.506 33.916 128.214 33.73 129.006 33.73C129.726 33.73 130.35 33.886 130.878 34.198C131.418 34.51 131.826 34.948 132.102 35.512V33.946H133.56ZM129.294 41.506C130.17 41.506 130.854 41.218 131.346 40.642C131.85 40.054 132.102 39.25 132.102 38.23C132.102 37.21 131.85 36.412 131.346 35.836C130.854 35.248 130.17 34.954 129.294 34.954C128.406 34.954 127.704 35.248 127.188 35.836C126.684 36.412 126.432 37.21 126.432 38.23C126.432 39.25 126.684 40.054 127.188 40.642C127.704 41.218 128.406 41.506 129.294 41.506ZM136.359 33.946H137.817V43H136.359V33.946ZM137.997 30.112V31.768H136.215V30.112H137.997ZM145.166 33.73C147.338 33.73 148.424 34.924 148.424 37.312V43H146.966V37.384C146.966 36.544 146.798 35.932 146.462 35.548C146.126 35.152 145.598 34.954 144.878 34.954C144.038 34.954 143.366 35.212 142.862 35.728C142.358 36.244 142.106 36.94 142.106 37.816V43H140.648V36.484C140.648 35.548 140.6 34.702 140.504 33.946H141.89L142.034 35.566C142.31 34.978 142.724 34.528 143.276 34.216C143.828 33.892 144.458 33.73 145.166 33.73ZM169.623 33.946L166.275 43H164.871L162.279 35.926L159.705 43H158.301L154.953 33.946H156.483L159.039 41.254L161.685 33.946H162.963L165.573 41.272L168.183 33.946H169.623ZM171.515 33.946H172.973V43H171.515V33.946ZM173.153 30.112V31.768H171.371V30.112H173.153ZM177.748 35.098V40.048C177.748 40.72 177.886 41.194 178.162 41.47C178.438 41.734 178.828 41.866 179.332 41.866C179.668 41.866 179.992 41.812 180.304 41.704V42.946C179.932 43.066 179.512 43.126 179.044 43.126C178.18 43.126 177.502 42.886 177.01 42.406C176.53 41.914 176.29 41.194 176.29 40.246V35.098H174.526V33.946H176.29V31.624L177.748 31.102V33.946H180.34V35.098H177.748ZM186.615 33.73C188.787 33.73 189.873 34.924 189.873 37.312V43H188.415V37.384C188.415 36.544 188.247 35.932 187.911 35.548C187.575 35.152 187.047 34.954 186.327 34.954C185.487 34.954 184.815 35.212 184.311 35.728C183.807 36.244 183.555 36.94 183.555 37.816V43H182.097V29.752H183.555V35.422C183.843 34.87 184.251 34.45 184.779 34.162C185.319 33.874 185.931 33.73 186.615 33.73ZM207.634 36.322V42.262C207.13 42.526 206.47 42.742 205.654 42.91C204.838 43.066 204.01 43.144 203.17 43.144C201.898 43.144 200.8 42.886 199.876 42.37C198.952 41.842 198.244 41.086 197.752 40.102C197.272 39.118 197.032 37.942 197.032 36.574C197.032 35.218 197.272 34.054 197.752 33.082C198.244 32.098 198.94 31.348 199.84 30.832C200.752 30.304 201.826 30.04 203.062 30.04C203.962 30.04 204.784 30.178 205.528 30.454C206.284 30.718 206.932 31.12 207.472 31.66L206.896 32.794C206.272 32.266 205.66 31.888 205.06 31.66C204.472 31.42 203.806 31.3 203.062 31.3C201.61 31.3 200.494 31.756 199.714 32.668C198.946 33.568 198.562 34.87 198.562 36.574C198.562 38.314 198.958 39.64 199.75 40.552C200.542 41.452 201.694 41.902 203.206 41.902C204.274 41.902 205.3 41.734 206.284 41.398V37.492H203.098V36.322H207.634ZM214.23 43.126C213.378 43.126 212.628 42.934 211.98 42.55C211.332 42.166 210.828 41.62 210.468 40.912C210.12 40.204 209.946 39.376 209.946 38.428C209.946 37.48 210.12 36.652 210.468 35.944C210.828 35.236 211.332 34.69 211.98 34.306C212.628 33.922 213.378 33.73 214.23 33.73C215.082 33.73 215.832 33.922 216.48 34.306C217.128 34.69 217.626 35.236 217.974 35.944C218.334 36.652 218.514 37.48 218.514 38.428C218.514 39.376 218.334 40.204 217.974 40.912C217.626 41.62 217.128 42.166 216.48 42.55C215.832 42.934 215.082 43.126 214.23 43.126ZM214.23 41.92C215.13 41.92 215.82 41.626 216.3 41.038C216.78 40.438 217.02 39.568 217.02 38.428C217.02 37.324 216.774 36.472 216.282 35.872C215.79 35.26 215.106 34.954 214.23 34.954C213.342 34.954 212.652 35.26 212.16 35.872C211.668 36.472 211.422 37.324 211.422 38.428C211.422 39.568 211.662 40.438 212.142 41.038C212.634 41.626 213.33 41.92 214.23 41.92ZM224.531 43.126C223.679 43.126 222.929 42.934 222.281 42.55C221.633 42.166 221.129 41.62 220.769 40.912C220.421 40.204 220.247 39.376 220.247 38.428C220.247 37.48 220.421 36.652 220.769 35.944C221.129 35.236 221.633 34.69 222.281 34.306C222.929 33.922 223.679 33.73 224.531 33.73C225.383 33.73 226.133 33.922 226.781 34.306C227.429 34.69 227.927 35.236 228.275 35.944C228.635 36.652 228.815 37.48 228.815 38.428C228.815 39.376 228.635 40.204 228.275 40.912C227.927 41.62 227.429 42.166 226.781 42.55C226.133 42.934 225.383 43.126 224.531 43.126ZM224.531 41.92C225.431 41.92 226.121 41.626 226.601 41.038C227.081 40.438 227.321 39.568 227.321 38.428C227.321 37.324 227.075 36.472 226.583 35.872C226.091 35.26 225.407 34.954 224.531 34.954C223.643 34.954 222.953 35.26 222.461 35.872C221.969 36.472 221.723 37.324 221.723 38.428C221.723 39.568 221.963 40.438 222.443 41.038C222.935 41.626 223.631 41.92 224.531 41.92ZM239.152 33.946V42.928C239.152 44.272 238.804 45.286 238.108 45.97C237.424 46.666 236.41 47.014 235.066 47.014C233.686 47.014 232.498 46.702 231.502 46.078L231.754 44.89C232.33 45.214 232.87 45.448 233.374 45.592C233.89 45.736 234.454 45.808 235.066 45.808C235.942 45.808 236.602 45.574 237.046 45.106C237.49 44.65 237.712 43.966 237.712 43.054V40.912C237.436 41.488 237.028 41.938 236.488 42.262C235.96 42.574 235.33 42.73 234.598 42.73C233.806 42.73 233.098 42.544 232.474 42.172C231.862 41.8 231.388 41.272 231.052 40.588C230.716 39.904 230.548 39.118 230.548 38.23C230.548 37.342 230.716 36.556 231.052 35.872C231.388 35.188 231.862 34.66 232.474 34.288C233.098 33.916 233.806 33.73 234.598 33.73C235.318 33.73 235.942 33.886 236.47 34.198C237.01 34.51 237.418 34.948 237.694 35.512V33.946H239.152ZM234.886 41.506C235.762 41.506 236.446 41.218 236.938 40.642C237.442 40.054 237.694 39.25 237.694 38.23C237.694 37.21 237.442 36.412 236.938 35.836C236.446 35.248 235.762 34.954 234.886 34.954C233.998 34.954 233.296 35.248 232.78 35.836C232.276 36.412 232.024 37.21 232.024 38.23C232.024 39.25 232.276 40.054 232.78 40.642C233.296 41.218 233.998 41.506 234.886 41.506ZM241.951 29.752H243.409V43H241.951V29.752ZM253.818 38.428H247.176C247.188 39.58 247.452 40.45 247.968 41.038C248.496 41.626 249.258 41.92 250.254 41.92C251.31 41.92 252.282 41.566 253.17 40.858L253.656 41.92C253.26 42.292 252.75 42.586 252.126 42.802C251.514 43.018 250.884 43.126 250.236 43.126C248.82 43.126 247.71 42.712 246.906 41.884C246.102 41.044 245.7 39.898 245.7 38.446C245.7 37.522 245.88 36.706 246.24 35.998C246.6 35.278 247.104 34.72 247.752 34.324C248.4 33.928 249.138 33.73 249.966 33.73C251.166 33.73 252.108 34.126 252.792 34.918C253.476 35.698 253.818 36.778 253.818 38.158V38.428ZM249.984 34.864C249.228 34.864 248.61 35.092 248.13 35.548C247.662 36.004 247.362 36.646 247.23 37.474H252.504C252.432 36.622 252.18 35.974 251.748 35.53C251.328 35.086 250.74 34.864 249.984 34.864Z" fill="white"/>
<rect x="7" y="7" width="55" height="55" rx="4" fill="white"/>
<path d="M44.2937 47.1687C41.5187 49.5125 37.9188 51 34 51C28.1687 51 23.0499 47.7875 20.275 43.1L21.3139 38.3111L25.9187 37.4562C26.9875 40.9062 30.2124 43.4375 34 43.4375C35.8374 43.4375 37.5437 42.8562 38.95 41.825L43.375 42.5L44.2937 47.1687Z" fill="#59C36A"/>
<path d="M44.2938 47.1688L43.375 42.5L38.95 41.825C37.5438 42.8563 35.8374 43.4375 34 43.4375V51C37.9188 51 41.5188 49.5125 44.2938 47.1688Z" fill="#00A66C"/>
<path d="M25.5625 35C25.5625 35.8624 25.6937 36.6874 25.9187 37.4562L20.275 43.1C18.8688 40.7375 18 37.9624 18 35C18 32.0374 18.8688 29.2625 20.275 26.9L24.8046 27.6796L25.9187 32.5437C25.6937 33.3124 25.5625 34.1374 25.5625 35Z" fill="#FFDA2D"/>
<path d="M50 35C50 39.8749 47.7438 44.2438 44.2938 47.1688L38.95 41.825C40.0374 41.0374 40.9562 39.9874 41.5562 38.75H34C33.4749 38.75 33.0625 38.3374 33.0625 37.8125V32.1875C33.0625 31.6624 33.4749 31.25 34 31.25H48.8C49.25 31.25 49.6437 31.5687 49.7188 32.0187C49.9062 32.9937 50 34.0062 50 35Z" fill="#4086F4"/>
<path d="M41.5563 38.75C40.9563 39.9874 40.0374 41.0374 38.9501 41.825L44.2938 47.1688C47.7438 44.2438 50 39.875 50 35C50 34.0062 49.9062 32.9937 49.7187 32.0187C49.6437 31.5687 49.2499 31.25 48.7999 31.25H34V38.75H41.5563Z" fill="#4175DF"/>
<path d="M44.5562 23.4687C44.575 23.7312 44.4625 23.975 44.2937 24.1624L40.2812 28.1562C39.9626 28.4937 39.4376 28.5312 39.0626 28.2499C37.5812 27.1437 35.8374 26.5625 34 26.5625C30.2124 26.5625 26.9875 29.0937 25.9187 32.5437L20.275 26.9C23.0499 22.2125 28.1687 19 34 19C37.7312 19 41.3687 20.375 44.2187 22.7749C44.425 22.9437 44.5375 23.2062 44.5562 23.4687Z" fill="#FF641A"/>
<path d="M39.0625 28.2499C39.4375 28.5312 39.9624 28.4937 40.2812 28.1562L44.2937 24.1624C44.4625 23.975 44.575 23.7312 44.5562 23.4687C44.5374 23.2061 44.4249 22.9437 44.2187 22.7749C41.3687 20.375 37.7313 19 34 19V26.5625C35.8374 26.5625 37.5812 27.1437 39.0625 28.2499Z" fill="#F03800"/>
</svg>
