<svg class="banner-button-icon" width="23" height="23" viewBox="0 0 23 23" xmlns="http://www.w3.org/2000/svg">
<path fill-rule="evenodd" clip-rule="evenodd" d="M4.66521 2.30292C4.4617 2.30248 4.26552 2.3256 4.0791 2.36955C3.82354 1.80427 3.48598 1.29713 3.10205 0.911827C2.45042 0.257854 1.42269 0 0 0V2.3C0.8691 2.3 1.36923 2.42548 1.48152 2.53817C1.91463 2.97284 2.29179 3.85602 2.29179 4.6L2.3033 4.76263L3.42613 12.6506C1.54736 12.7484 0.0918979 14.2126 0.00140782 16.043L0 17.25C0.110947 19.1405 1.56157 20.5948 3.37264 20.6981L3.63278 20.6985C4.10429 22.0393 5.37803 23 6.87536 23C8.37214 23 9.6455 22.04 10.1174 20.7H12.8004C13.2723 22.04 14.5457 23 16.0425 23C17.9411 23 19.4802 21.4554 19.4802 19.55C19.4802 17.6446 17.9411 16.1 16.0425 16.1C14.5457 16.1 13.2723 17.06 12.8004 18.4H10.1174C9.6455 17.06 8.37214 16.1 6.87536 16.1C5.37857 16.1 4.10521 17.06 3.63329 18.4H3.43768C2.85328 18.3648 2.32907 17.8393 2.28973 17.1811L2.29179 16.1C2.32268 15.5035 2.84332 14.981 3.49446 14.9486L5.75661 14.9492L5.77301 14.95H17.3223L17.4914 14.8961C18.3603 14.6195 19.0558 13.9629 19.3851 13.1129L19.5058 12.8731L19.898 12.0933C20.3038 11.286 20.7096 10.4774 21.105 9.68737C22.0736 7.75223 22.6827 6.52241 22.8176 6.22041C23.5103 4.66952 22.107 3.47583 20.6727 3.45041L4.66521 2.30292ZM16.9242 12.65H5.85881C5.78523 12.6295 5.72916 12.5669 5.71819 12.489L4.59533 4.60084L20.5039 5.74416C20.2255 6.31387 19.7195 7.33143 19.0571 8.655L19.0405 8.68817C18.6623 9.44364 18.2571 10.2512 17.8519 11.0573L17.4601 11.8362L17.3116 12.1312L17.2557 12.2616C17.1959 12.4289 17.077 12.5665 16.9242 12.65ZM16.0425 20.7C16.6754 20.7 17.1884 20.1851 17.1884 19.55C17.1884 18.9149 16.6754 18.4 16.0425 18.4C15.4097 18.4 14.8966 18.9149 14.8966 19.55C14.8966 20.1851 15.4097 20.7 16.0425 20.7ZM8.02125 19.55C8.02125 20.1851 7.50822 20.7 6.87536 20.7C6.2425 20.7 5.72947 20.1851 5.72947 19.55C5.72947 18.9149 6.2425 18.4 6.87536 18.4C7.50822 18.4 8.02125 18.9149 8.02125 19.55Z" fill="#fff6b8"/>
</svg>
