<svg 
    id="Capa_1" 
    enable-background="new 0 0 512 512" 
    width="64"
    height="64"
    viewBox="0 0 512 512" 
    xmlns="http://www.w3.org/2000/svg">
    <g>
        <path fill="#6b4a40" d="m512 381.646c0-14.612-11.888-26.5-26.5-26.5h-24.336c0-4.76 0-171.741 0-176.146
            0-12.406-10.094-22.5-22.5-22.5h-102.74c6.203-7.344 9.953-16.823 9.953-27.166 0-23.251-18.916-42.167-42.167-42.167-11.178
            0-21.346 4.38-28.9 11.503l-110.402-35.472c-4.438-1.424-9.211-.623-13.09 2.204-4.93 3.593-7.872 9.913-7.872
            16.907v74.191h-70.11c-12.406 0-22.5 10.094-22.5 22.5v76.429c0 4.143 3.357 7.5 7.5 7.5s7.5-3.357 7.5-7.5v-76.429c0-4.136 
            3.364-7.5 7.5-7.5h116.483v183.646h-123.983v-64.717c0-4.143-3.357-7.5-7.5-7.5s-7.5 3.357-7.5 7.5v64.717h-24.336c-14.612 
            0-26.5 11.888-26.5 26.5 0 13.652 10.377 24.922 23.657 26.345l1.424 17.189c1.13 13.633 12.73 24.313 26.41 24.313h293.719c4.143 
            0 7.5-3.357 7.5-7.5s-3.357-7.5-7.5-7.5h-293.719c-5.937 0-10.971-4.635-11.461-10.551l-1.309-15.796h434.557l-1.309 15.796c-.49 
            5.916-5.524 10.551-11.461 10.551h-80.298c-4.143 0-7.5 3.357-7.5 7.5s3.357 7.5 7.5 7.5h80.299c13.68 0 25.28-10.68 
            26.41-24.313l1.424-17.189c13.28-1.423 23.657-12.694 23.657-26.345zm-273.181-108.625h207.345v14.978h-207.345zm0-67.148h207.345v52.147h-207.345zm0 
            97.125h207.345v52.147h-207.345zm-40.606-146.498v-26.597l65.23 12.044c1.669 5.396 4.38 10.329 7.924 14.552h-73.154zm105.497-54.333c14.979 
            0 27.167 12.188 27.167 27.167 0 14.354-11.194 26.136-25.309 27.095-.008 0-.015 0-.023 0-1.666.112-2.969.079-4.391-.053 
            0 0-.027-.003-.032-.004-8.819-.832-16.78-5.998-21.162-13.867-10.144-18.33 3.357-40.338 23.75-40.338zm-145.264-19.858c0-2.609 
            1.05-4.278 1.641-4.744l105.443 33.879c-2.129 4.549-3.502 9.624-3.871 14.922l-60.973-11.259c-4.64-.854-9.459.342-12.892 3.198-2.912 
            2.425-4.582 5.882-4.582 9.484v28.711h-24.767v-74.191zm46.373 89.191h233.845c4.136 0 7.5 3.364 7.5 7.5v11.5c-224.441 0-209.306-.432-212.971.954-4.664 
            1.774-7.99 5.723-9.025 10.423-.087.391-.169.865-.229 1.359-.017.141-.037.28-.05.422-.041.443-.068.89-.068 1.342v150.146h-19v-183.646zm280.681 
            221.646c-4.354 0-451.962 0-454.926 0h-4.074c-6.341 0-11.5-5.159-11.5-11.5s5.159-11.5 11.5-11.5h459c6.341 0 11.5 5.159 11.5 11.5s-5.159 11.5-11.5 
            11.5z"/>
    </g>
</svg>