<svg width="43" height="38" viewBox="0 0 43 38" fill="none" xmlns="http://www.w3.org/2000/svg">
<path fill-rule="evenodd" clip-rule="evenodd" d="M31.8944 8.17778H38.0778C40.3656 8.17778 42.2 9.91823 42.2 12.0889V33.6C42.2 35.7707 40.3656 37.5111 38.0778 37.5111H5.09999C2.81216 37.5111 0.977768 35.7707 0.977768 33.6V12.0889C0.977768 9.91823 2.81216 8.17778 5.09999 8.17778H11.2833V4.26667C11.2833 2.096 13.1177 0.35556 15.4055 0.35556H27.7722C30.06 0.35556 31.8944 2.096 31.8944 4.26667V8.17778ZM27.7722 4.26667H15.4055V8.17778H27.7722V4.26667ZM38.0778 33.6H5.10001V29.6889H38.0778V33.6ZM5.10001 23.8222H38.0778V12.0889H31.8944V16H27.7722V12.0889H15.4056V16H11.2833V12.0889H5.10001V23.8222Z"
fill="currentColor"/>
</svg>
