<svg width="24" height="24" viewBox="0 0 24 24" fill="none" xmlns="http://www.w3.org/2000/svg">
<rect width="24" height="24" rx="12" fill="url(#paint0_linear)"/>
<path d="M9.5007 12C9.5007 10.6193 10.6196 9.4998 12.0003 9.4998C13.381 9.4998 14.5005 10.6193 14.5005 12C14.5005 13.3807 13.381 14.5002 12.0003 14.5002C10.6196 14.5002 9.5007 13.3807 9.5007 12ZM8.14915 12C8.14915 14.127 9.8733 15.8512 12.0003 15.8512C14.1273 15.8512 15.8515 14.127 15.8515 12C15.8515 9.873 14.1273 8.14884 12.0003 8.14884C9.8733 8.14884 8.14915 9.873 8.14915 12ZM15.1039 7.99614C15.1039 8.17414 15.1566 8.34817 15.2554 8.49621C15.3542 8.64426 15.4948 8.75967 15.6592 8.82785C15.8236 8.89604 16.0046 8.91393 16.1792 8.87928C16.3537 8.84462 16.5141 8.75897 16.6401 8.63315C16.766 8.50733 16.8518 8.347 16.8866 8.17243C16.9214 7.99787 16.9036 7.8169 16.8356 7.65242C16.7675 7.48794 16.6522 7.34733 16.5042 7.24838C16.3563 7.14943 16.1823 7.09657 16.0043 7.0965H16.0039C15.7653 7.09661 15.5365 7.19142 15.3678 7.3601C15.199 7.52878 15.1041 7.75754 15.1039 7.99614ZM8.9703 18.1048C8.23908 18.0715 7.84165 17.9497 7.57752 17.8468C7.22737 17.7105 6.97752 17.5481 6.71484 17.2858C6.45217 17.0235 6.28957 16.7739 6.15385 16.4237C6.05089 16.1597 5.92909 15.7622 5.89585 15.031C5.85949 14.2404 5.85223 14.0029 5.85223 12.0001C5.85223 9.9972 5.86009 9.76038 5.89585 8.96916C5.92915 8.23794 6.05185 7.84116 6.15385 7.57638C6.29017 7.22622 6.45253 6.97638 6.71484 6.7137C6.97716 6.45102 7.22676 6.28842 7.57752 6.1527C7.84152 6.04974 8.23908 5.92794 8.9703 5.8947C9.76086 5.85834 9.99834 5.85108 12.0003 5.85108C14.0023 5.85108 14.24 5.85894 15.0312 5.8947C15.7624 5.928 16.1592 6.0507 16.424 6.1527C16.7741 6.28842 17.024 6.45138 17.2867 6.7137C17.5493 6.97602 17.7113 7.22622 17.8477 7.57638C17.9506 7.84038 18.0724 8.23794 18.1057 8.96916C18.142 9.76038 18.1493 9.9972 18.1493 12.0001C18.1493 14.0029 18.142 14.2397 18.1057 15.031C18.0724 15.7622 17.95 16.1596 17.8477 16.4237C17.7113 16.7739 17.549 17.0237 17.2867 17.2858C17.0243 17.5479 16.7741 17.7105 16.424 17.8468C16.16 17.9498 15.7624 18.0716 15.0312 18.1048C14.2406 18.1412 14.0032 18.1484 12.0003 18.1484C9.99744 18.1484 9.76062 18.1412 8.9703 18.1048ZM8.90821 4.54542C8.10979 4.58178 7.5642 4.70838 7.08774 4.89378C6.59431 5.08524 6.17659 5.3421 5.75917 5.75886C5.34175 6.17562 5.08555 6.594 4.89409 7.08744C4.70869 7.5642 4.58209 8.10948 4.54573 8.9079C4.50877 9.70758 4.50031 9.96324 4.50031 12C4.50031 14.0368 4.50877 14.2924 4.54573 15.0921C4.58209 15.8906 4.70869 16.4358 4.89409 16.9126C5.08555 17.4057 5.34181 17.8246 5.75917 18.2411C6.17652 18.6577 6.59431 18.9142 7.08774 19.1062C7.5651 19.2916 8.10979 19.4182 8.90821 19.4546C9.7083 19.4909 9.96354 19.5 12.0003 19.5C14.0371 19.5 14.2927 19.4915 15.0924 19.4546C15.8909 19.4182 16.4361 19.2916 16.9129 19.1062C17.406 18.9142 17.824 18.6579 18.2414 18.2411C18.6589 17.8244 18.9145 17.4057 19.1065 16.9126C19.2919 16.4358 19.4191 15.8905 19.4549 15.0921C19.4912 14.2918 19.4997 14.0368 19.4997 12C19.4997 9.96324 19.4912 9.70758 19.4549 8.9079C19.4185 8.10942 19.2919 7.5639 19.1065 7.08744C18.9145 6.5943 18.6582 6.17628 18.2414 5.75886C17.8247 5.34144 17.406 5.08524 16.9135 4.89378C16.4361 4.70838 15.8908 4.58118 15.093 4.54542C14.2933 4.50906 14.0377 4.5 12.0009 4.5C9.96414 4.5 9.7083 4.50846 8.90821 4.54542Z" fill="white"/>
<defs>
<linearGradient id="paint0_linear" x1="22.25" y1="3.25" x2="-2.75" y2="27.5" gradientUnits="userSpaceOnUse">
<stop stop-color="#285AEB"/>
<stop offset="0.255208" stop-color="#D6249F"/>
<stop offset="0.729167" stop-color="#FD5949"/>
<stop offset="1" stop-color="#FDF497"/>
</linearGradient>
</defs>
</svg>
