<svg width="50" height="50" viewBox="0 0 50 50" fill="none" xmlns="http://www.w3.org/2000/svg">
<path fill-rule="evenodd" clip-rule="evenodd" d="M8.7426 12.5C7.92209 11.1584 7.5 9.50714 7.5 7.5C7.5 3.54271 10.4759 0 15 0C19.53 0 23.1832 3.03407 25 7.78457C26.8168 3.03407 30.47 0 35 0C39.5241 0 42.5 3.54271 42.5 7.5C42.5 9.50714 42.0779 11.1584 41.2574 12.5H45C47.7614 12.5 50 14.7386 50 17.5V22.5C50 25.2614 47.7614 27.5 45 27.5V45C45 47.7614 42.7614 50 40 50H10C7.23858 50 5 47.7614 5 45V27.5C2.23858 27.5 0 25.2614 0 22.5V17.5C0 14.7386 2.23858 12.5 5 12.5H8.7426ZM22.5 17.5H5V22.5H22.5V17.5ZM45 22.5H27.5V17.5H45V22.5ZM22.5 45V27.5H10V45H22.5ZM40 45H27.5V27.5H40V45ZM15 5.00002C13.4491 5.00002 12.5 6.12992 12.5 7.50002C12.5 10.6331 15.0425 12.1228 21.0735 12.4362C20.4033 7.77901 17.9054 5.00002 15 5.00002ZM28.75 12.4362C29.4203 7.77901 31.9181 5.00002 34.8236 5.00002C36.3744 5.00002 37.3236 6.12992 37.3236 7.50002C37.3236 10.6331 34.781 12.1228 28.75 12.4362Z" fill="white"/>
</svg>
