<svg width="10" height="12" viewBox="0 0 10 12" fill="none" xmlns="http://www.w3.org/2000/svg">
<path d="M8.51121 0.908068C7.96511 0.27503 6.97795 0.00363159 5.71506 0.00363159H2.04983C1.7917 0.00364131 1.57189 0.194521 1.53144 0.453797L0.00530312 10.2976C-0.0250315 10.4917 0.122761 10.6675 0.316213 10.6675H2.579L3.14728 7.00164L3.12965 7.11643C3.17013 6.85731 3.38804 6.66619 3.64608 6.66619H4.72135C6.83372 6.66619 8.48774 5.7936 8.9709 3.26938C8.98524 3.19473 8.99767 3.12206 9.0084 3.05108C8.94742 3.01823 8.94742 3.01823 9.0084 3.05108C9.15228 2.1181 9.00742 1.48303 8.51121 0.908068Z" fill="#27346A"/>
<path d="M4.01311 2.71499C4.07497 2.68503 4.14263 2.66951 4.21115 2.66955H7.08463C7.42489 2.66955 7.74227 2.69207 8.03229 2.73954C8.11344 2.7527 8.19418 2.76841 8.27438 2.78665C8.38805 2.81216 8.5004 2.84338 8.61104 2.8802C8.75362 2.92863 8.8864 2.98503 9.00844 3.05108C9.15228 2.11774 9.00742 1.48303 8.51121 0.908068C7.9648 0.27503 6.97795 0.00363159 5.71506 0.00363159H2.04952C1.79144 0.00363159 1.57188 0.194715 1.53144 0.453797L0.00530333 10.2972C-0.0250312 10.4917 0.122762 10.6672 0.3159 10.6672H2.579L3.75801 3.06335C3.78155 2.91163 3.87693 2.78138 4.01311 2.71499Z" fill="#27346A"/>
<path d="M8.97088 3.26939C8.48772 5.79325 6.83374 6.6662 4.72134 6.6662H3.64575C3.38771 6.6662 3.16977 6.85732 3.12967 7.11644L2.42269 11.6745C2.39627 11.8444 2.52545 11.9983 2.69445 11.9983H4.60192C4.82765 11.9982 5.01982 11.8313 5.0551 11.6045L5.07367 11.5057L5.43318 9.18842L5.45634 9.06036C5.49162 8.83362 5.68377 8.66663 5.90948 8.66655H6.19495C8.04274 8.66655 9.48959 7.9031 9.91239 5.69508C10.0889 4.77235 9.99756 4.00196 9.5307 3.46083C9.3891 3.29694 9.21325 3.16158 9.00839 3.05109C8.9973 3.12243 8.98527 3.19474 8.97088 3.26939Z" fill="#2790C3"/>
<path d="M8.50273 2.84603C8.4274 2.82366 8.35135 2.80385 8.27471 2.78664C8.19447 2.7687 8.11374 2.75309 8.03262 2.73985C7.74229 2.69206 7.42515 2.6695 7.08457 2.6695H4.21145C4.14288 2.66934 4.07517 2.685 4.01341 2.71529C3.87706 2.78149 3.78159 2.91184 3.75827 3.06366L3.14758 7.00163L3.12994 7.11642C3.17012 6.8573 3.38802 6.66618 3.6461 6.66618H4.72169C6.83406 6.66618 8.48803 5.79359 8.97119 3.26937C8.98558 3.19472 8.99765 3.12237 9.00874 3.05106C8.88638 2.98538 8.75395 2.92862 8.61133 2.88051C8.57535 2.86838 8.53915 2.85688 8.50277 2.84603" fill="#1F264F"/>
</svg>
