<svg width="22" height="22" viewBox="0 0 22 22" fill="none" xmlns="http://www.w3.org/2000/svg">
<rect width="22" height="22" rx="11" fill="#1DA1F2"/>
<path d="M16.3912 8.6224C16.3912 8.74271 16.3912 8.86302 16.3912 8.96615C16.3912 12.524 13.6755 16.6318 8.72553 16.6318C7.19584 16.6318 5.78647 16.1849 4.58334 15.4286C4.78959 15.4458 5.01303 15.463 5.21928 15.463C6.47397 15.463 7.64272 15.0333 8.57084 14.3115C7.38491 14.2943 6.38803 13.5036 6.06147 12.438C6.23334 12.4724 6.38803 12.4896 6.57709 12.4896C6.81772 12.4896 7.05834 12.4552 7.28178 12.3865C6.04428 12.1458 5.11616 11.063 5.11616 9.75677C5.11616 9.73959 5.11616 9.73959 5.11616 9.7224C5.47709 9.92865 5.88959 10.049 6.33647 10.0661C5.61459 9.5849 5.13334 8.7599 5.13334 7.81459C5.13334 7.31615 5.27084 6.85209 5.49428 6.45677C6.81772 8.08959 8.81147 9.15521 11.0458 9.27552C10.9943 9.08646 10.9771 8.86302 10.9771 8.65677C10.9771 7.16146 12.1802 5.95834 13.6755 5.95834C14.449 5.95834 15.1537 6.2849 15.6349 6.80052C16.2537 6.68021 16.8208 6.45677 17.3537 6.1474C17.1474 6.78334 16.7177 7.29896 16.1677 7.64271C16.7177 7.57396 17.2333 7.43646 17.7146 7.21302C17.3708 7.76302 16.924 8.24427 16.3912 8.6224Z" fill="white"/>
</svg>
